<svg id="Layer_1" data-name="Layer 1" xmlns="http://www.w3.org/2000/svg" viewBox="0 0 562.8 134"><title>Artboard 1</title><path d="M26.8,67A40.2,40.2,0,1,0,67,26.8,40.2,40.2,0,0,0,26.8,67ZM61,32h.4C57,36.3,55,42.45,67.5,39.75,81,36.9,94.6,36.5,86.4,46c-3.6,4.2,1.25,2.75,4.6,3.15,1.3.15,7.6.7,5.9,3.6-13.15-1.3-38.3,11.5-44.95,26l-.6-.55c.7-4.35,5.1-14,13.05-20.4,9.35-7.45,12.75-13.3.8-11.45C44.25,49.55,53.9,36,61,32ZM82.8,62.2C99.9,56.15,101,62.7,97,65.55c-3.8,2.7-12.7,7.75-5.5,7.8,5.85,0,8.25,4.85-1.9,15.15a31.67,31.67,0,0,1-23,9.5,34.15,34.15,0,0,1-7.5-.85V96.7c21.35,1.75,28.15-13,14.65-14-10.85-.85-10.3-13.65,9-20.5Zm42.3,4.7c0,8.35,4.5,14,12.85,14,5.5,0,10-2.15,11.75-8.3l-5.15-1.3a6.15,6.15,0,0,1-6.4,5c-4.05,0-6.75-2.6-7.15-8.15h18.7c.5-10.35-4.35-15.1-11.75-15.1-7.6,0-12.85,5-12.85,13.8Zm12.65-9.4c3.7,0,5.85,2.3,5.95,6.9H131.1c.55-4.75,3-6.9,6.65-6.9ZM155.3,80.4h6V62.2a7,7,0,0,1,6.25-4.15c2.95,0,4.95,1.8,4.95,5.35v17h6V63.05c0-6.3-3.45-9.95-8.85-9.95a9.38,9.38,0,0,0-8.55,4.95V53.6h-5.8ZM183.8,67c0,8.7,4,14,10.95,14a10.25,10.25,0,0,0,8.05-4V80.4h6V53.6h-6v3.45a10.18,10.18,0,0,0-8.05-3.95c-6.75,0-10.95,5-10.95,13.85Zm6,0c0-5.5,2.45-9,6.7-9a7,7,0,0,1,6.3,3.75V72.3A6.77,6.77,0,0,1,196.6,76c-4.15,0-6.8-3.4-6.8-9Zm26,13.4h6V77.05a10.44,10.44,0,0,0,8,3.85c6.9,0,11-5.25,11-14s-4.2-13.85-11-13.85a10.18,10.18,0,0,0-8,3.95V43.4h-6Zm19-13.4c0,5.55-2.65,9-6.8,9a6.82,6.82,0,0,1-6.2-3.5V61.8a7,7,0,0,1,6.3-3.75c4.25,0,6.7,3.45,6.7,9Zm11.6,13.4h6v-37h-6Zm13,0h6V53.6h-6Zm-.8-33.7a3.8,3.8,0,1,0,3.8-3.8,3.8,3.8,0,0,0-3.8,3.8Zm13.8,33.7h6V62.2a7,7,0,0,1,6.25-4.15c3,0,5,1.8,5,5.35v17h6V63.05c0-6.3-3.45-9.95-8.85-9.95a9.38,9.38,0,0,0-8.55,4.95V53.6h-5.8Zm28.5-14.6c0,7.6,4.1,12.65,10.35,12.65a9.93,9.93,0,0,0,8.25-4.3v4.2c0,4.1-2.2,6.45-6.5,6.45-3.35,0-6.25-1.4-7.05-4.9L301,81.55c1.45,4.8,5.5,7.35,11.95,7.35,7.9,0,12.55-4.4,12.55-10.65V53.6h-6v3.85a10,10,0,0,0-8.2-4.35c-6.25,0-10.4,5-10.4,12.7Zm6,0c0-4.8,2.2-7.8,6.1-7.8a7.55,7.55,0,0,1,6.5,4v7.6a7.38,7.38,0,0,1-6.5,4c-3.8,0-6.1-2.8-6.1-7.7ZM339.1,67c0,8.7,4,14,10.95,14a10.25,10.25,0,0,0,8.05-4V80.4h6v-37h-6V57.05a10.18,10.18,0,0,0-8.05-3.95c-6.75,0-10.95,5-10.95,13.85Zm6,0c0-5.5,2.45-9,6.7-9a7,7,0,0,1,6.3,3.75V72.3A6.77,6.77,0,0,1,351.9,76c-4.15,0-6.8-3.4-6.8-9Zm24.6-.1c0,8.35,4.5,14,12.85,14,5.5,0,9.95-2.15,11.75-8.3l-5.15-1.3a6.15,6.15,0,0,1-6.4,5c-4.05,0-6.75-2.6-7.15-8.15h18.7c.5-10.35-4.35-15.1-11.75-15.1-7.6,0-12.85,5-12.85,13.8Zm12.65-9.4c3.7,0,5.85,2.3,5.95,6.9H375.7c.55-4.75,3-6.9,6.65-6.9ZM399.9,80.4h6v-37h-6Zm10.15-22.1h4.15V71.85c0,6.65,3,9.05,9.1,9.05a12,12,0,0,0,4.05-.75L426.2,75.7a4.21,4.21,0,0,1-2.45.8c-2.4,0-3.55-1-3.55-4.85V58.3h6.25V53.6H420.2V43.4h-5.8V53.6h-4.35ZM430.3,67c0,8.7,4.05,14,10.95,14a10.25,10.25,0,0,0,8.05-4V80.4h6V53.6h-6v3.45a10.18,10.18,0,0,0-8.05-3.95c-6.75,0-10.95,5-10.95,13.85Zm6,0c0-5.5,2.45-9,6.7-9a7,7,0,0,1,6.3,3.75V72.3A6.77,6.77,0,0,1,443.1,76c-4.15,0-6.8-3.4-6.8-9Zm34,13.4h6v-37h-6Zm13,0h6V53.6h-6Zm-.8-33.7a3.8,3.8,0,1,0,3.8-3.8,3.8,3.8,0,0,0-3.8,3.8Zm15,33.7h6V58.3h6.1V53.6h-6.1V52.5c0-3.5,1.3-5.3,4.5-5.3a6.4,6.4,0,0,1,2.4.45l.7-4.25a14.31,14.31,0,0,0-3.45-.4c-6.3,0-10.1,3-10.1,9.5v1.1h-4.1v4.7h4.05Zm13.9-13.5c0,8.35,4.5,14,12.85,14,5.5,0,10-2.15,11.75-8.3l-5.15-1.3a6.15,6.15,0,0,1-6.4,5c-4.05,0-6.75-2.6-7.15-8.15H536c.5-10.35-4.35-15.1-11.75-15.1-7.6,0-12.85,5-12.85,13.8Zm12.65-9.4c3.7,0,5.85,2.3,6,6.9H517.4C518,59.65,520.4,57.5,524.05,57.5Z" style="fill:#0a28a3"/><rect width="562.8" height="134" style="fill:none"/></svg>